<svg width="24" height="48" viewBox="0 0 24 48" fill="none" xmlns="http://www.w3.org/2000/svg">
<rect x="1.28975" y="24.8649" width="22" height="22" rx="1.5" fill="white" stroke="#C4C4C4"/>
<path d="M4.78975 35.8649H19.7897M4.78975 35.8649H19.7897" stroke="#53989B" stroke-width="2" stroke-linecap="round"/>
<rect x="1.28975" y="0.621872" width="22" height="22" rx="1.5" fill="white" stroke="#C4C4C4"/>
<path fill-rule="evenodd" clip-rule="evenodd" d="M11.2897 19.1283C11.2897 19.6805 11.7375 20.1283 12.2897 20.1283C12.842 20.1283 13.2897 19.6805 13.2897 19.1283V12.6219H19.7961C20.3484 12.6219 20.7961 12.1742 20.7961 11.6219C20.7961 11.0696 20.3484 10.6219 19.7961 10.6219H13.2897V4.11548C13.2897 3.56319 12.842 3.11548 12.2897 3.11548C11.7375 3.11548 11.2897 3.56319 11.2897 4.11548V10.6219H4.78336C4.23107 10.6219 3.78336 11.0696 3.78336 11.6219C3.78336 12.1742 4.23107 12.6219 4.78336 12.6219H11.2897V19.1283Z" fill="#53989B"/>
</svg>
