<svg width="13" height="19" viewBox="0 0 13 19" fill="none" xmlns="http://www.w3.org/2000/svg">
<path d="M11.9616 2.92647C12.5661 2.35999 12.5969 1.41075 12.0305 0.806263C11.464 0.201781 10.5147 0.170969 9.91025 0.737443L11.9616 2.92647ZM3.09737 9.17766L2.07167 8.08315L0.940831 9.14289L2.03692 10.2385L3.09737 9.17766ZM9.8755 18.074C10.4614 18.6596 11.4111 18.6594 11.9968 18.0735C12.5825 17.4876 12.5823 16.5379 11.9964 15.9522L9.8755 18.074ZM9.91025 0.737443L2.07167 8.08315L4.12306 10.2722L11.9616 2.92647L9.91025 0.737443ZM2.03692 10.2385L9.8755 18.074L11.9964 15.9522L4.15781 8.11679L2.03692 10.2385Z" fill="white"/>
</svg>
