<?xml version="1.0" encoding="UTF-8"?>
<svg width="362px" height="14px" viewBox="0 0 362 14" version="1.1" xmlns="http://www.w3.org/2000/svg" xmlns:xlink="http://www.w3.org/1999/xlink">
    <!-- Generator: Sketch 57.1 (83088) - https://sketch.com -->
    <title>Group</title>
    <desc>Created with Sketch.</desc>
    <g id="Page-1" stroke="none" stroke-width="1" fill="none" fill-rule="evenodd">
        <g id="Group">
            <path d="M168.302,11 L166.492,11 L166.492,6.04297 L166.509,5.22852 L166.539,4.33789 C166.238,4.63867 166.029,4.83594 165.912,4.92969 L164.927,5.7207 L164.054,4.63086 L166.814,2.43359 L168.302,2.43359 L168.302,11 Z M173.634,2.32227 C174.455,2.32227 175.115,2.50977 175.615,2.88477 C176.119,3.25586 176.371,3.75781 176.371,4.39062 C176.371,4.82812 176.25,5.21875 176.008,5.5625 C175.765,5.90234 175.375,6.20703 174.836,6.47656 C175.476,6.82031 175.935,7.17969 176.213,7.55469 C176.494,7.92578 176.634,8.334 176.634,8.7793 C176.634,9.4824 176.359,10.0488 175.808,10.4785 C175.258,10.9043 174.533,11.1172 173.634,11.1172 C172.697,11.1172 171.961,10.918 171.426,10.5195 C170.89,10.1211 170.623,9.5566 170.623,8.8262 C170.623,8.3379 170.752,7.9043 171.009,7.52539 C171.271,7.14648 171.689,6.8125 172.263,6.52344 C171.775,6.21484 171.424,5.88477 171.209,5.5332 C170.994,5.18164 170.886,4.79688 170.886,4.37891 C170.886,3.76562 171.14,3.26953 171.648,2.89062 C172.156,2.51172 172.818,2.32227 173.634,2.32227 Z M172.299,8.7207 C172.299,9.0566 172.416,9.3184 172.65,9.5059 C172.884,9.6934 173.205,9.7871 173.611,9.7871 C174.06,9.7871 174.396,9.6914 174.619,9.5 C174.842,9.3047 174.953,9.0488 174.953,8.7324 C174.953,8.4707 174.842,8.2266 174.619,8 C174.4,7.76953 174.043,7.52539 173.547,7.26758 C172.715,7.65039 172.299,8.1348 172.299,8.7207 Z M173.623,3.64648 C173.314,3.64648 173.064,3.72656 172.873,3.88672 C172.685,4.04297 172.592,4.25391 172.592,4.51953 C172.592,4.75391 172.666,4.96484 172.814,5.15234 C172.967,5.33594 173.24,5.52539 173.634,5.7207 C174.017,5.54102 174.285,5.35742 174.437,5.16992 C174.59,4.98242 174.666,4.76562 174.666,4.51953 C174.666,4.25 174.568,4.03711 174.373,3.88086 C174.177,3.72461 173.927,3.64648 173.623,3.64648 Z M177.742,10.1621 C177.742,9.834 177.83,9.5859 178.006,9.418 C178.181,9.25 178.437,9.166 178.773,9.166 C179.097,9.166 179.347,9.252 179.523,9.4238 C179.703,9.5957 179.793,9.8418 179.793,10.1621 C179.793,10.4707 179.703,10.7148 179.523,10.8945 C179.343,11.0703 179.093,11.1582 178.773,11.1582 C178.445,11.1582 178.191,11.0723 178.011,10.9004 C177.832,10.7246 177.742,10.4785 177.742,10.1621 Z M177.742,5.32227 C177.742,4.99414 177.83,4.74609 178.006,4.57812 C178.181,4.41016 178.437,4.32617 178.773,4.32617 C179.097,4.32617 179.347,4.41211 179.523,4.58398 C179.703,4.75586 179.793,5.00195 179.793,5.32227 C179.793,5.63867 179.701,5.88477 179.517,6.06055 C179.338,6.23242 179.09,6.31836 178.773,6.31836 C178.445,6.31836 178.191,6.23242 178.011,6.06055 C177.832,5.88867 177.742,5.64258 177.742,5.32227 Z M184.076,5.52734 C184.904,5.52734 185.562,5.75977 186.051,6.22461 C186.543,6.68945 186.789,7.32617 186.789,8.1348 C186.789,9.0918 186.494,9.8281 185.904,10.3438 C185.314,10.8594 184.47,11.1172 183.373,11.1172 C182.42,11.1172 181.65,10.9629 181.064,10.6543 L181.064,9.0898 C181.373,9.2539 181.732,9.3887 182.142,9.4941 C182.552,9.5957 182.941,9.6465 183.308,9.6465 C184.414,9.6465 184.967,9.1934 184.967,8.2871 C184.967,7.42383 184.394,6.99219 183.25,6.99219 C183.043,6.99219 182.814,7.01367 182.564,7.05664 C182.314,7.0957 182.111,7.13867 181.955,7.18555 L181.234,6.79883 L181.556,2.43359 L186.203,2.43359 L186.203,3.96875 L183.144,3.96875 L182.986,5.65039 L183.191,5.60938 C183.429,5.55469 183.724,5.52734 184.076,5.52734 Z M193.996,9.2246 L192.965,9.2246 L192.965,11 L191.195,11 L191.195,9.2246 L187.539,9.2246 L187.539,7.96484 L191.295,2.43359 L192.965,2.43359 L192.965,7.81836 L193.996,7.81836 L193.996,9.2246 Z M191.195,7.81836 L191.195,6.36523 C191.195,6.12305 191.205,5.77148 191.224,5.31055 C191.244,4.84961 191.259,4.58203 191.271,4.50781 L191.224,4.50781 C191.08,4.82812 190.906,5.14062 190.703,5.44531 L189.133,7.81836 L191.195,7.81836 Z" id="Shape" fill="#FFFFFF" fill-rule="nonzero"></path>
            <circle id="Oval" fill="#FFFFFF" fill-rule="nonzero" cx="2.7673" cy="6.5" r="2.5"></circle>
            <circle id="Oval" fill="#FFFFFF" fill-rule="nonzero" cx="9.7673" cy="6.5" r="2.5"></circle>
            <circle id="Oval" fill="#FFFFFF" fill-rule="nonzero" cx="16.7673" cy="6.5" r="2.5"></circle>
            <circle id="Oval" stroke="#FFFFFF" cx="23.7673" cy="6.5" r="2"></circle>
            <circle id="Oval" stroke="#FFFFFF" cx="30.7673" cy="6.5" r="2"></circle>
            <polyline id="Path" stroke="#FFFFFF" stroke-linecap="round" points="324.767 10.5 331.267 4 327.767 0.5 327.767 13.5 331.267 10 324.767 3.5"></polyline>
            <path d="M43.8498,11 L42.8279,8.3889 L39.5373,8.3889 L38.5266,11 L37.5608,11 L40.8064,2.75684 L41.6093,2.75684 L44.8381,11 L43.8498,11 Z M42.5302,7.52979 L41.5757,4.98608 C41.4521,4.66414 41.3248,4.26921 41.1938,3.80127 C41.1115,4.16064 40.9935,4.55558 40.8401,4.98608 L39.8742,7.52979 L42.5302,7.52979 Z M48.4936,11 L47.539,11 L47.539,3.63843 L44.9392,3.63843 L44.9392,2.79053 L51.0935,2.79053 L51.0935,3.63843 L48.4936,3.63843 L48.4936,11 Z M53.5305,4.42456 C53.5305,4.68286 53.5979,4.92993 53.7326,5.16577 C53.8674,5.39787 54.0976,5.67863 54.4233,6.00806 C54.9062,5.72729 55.2413,5.46899 55.4284,5.23315 C55.6194,4.99357 55.7148,4.71842 55.7148,4.40771 C55.7148,4.11947 55.6175,3.8855 55.4228,3.70581 C55.2319,3.52238 54.9755,3.43066 54.6535,3.43066 C54.3204,3.43066 54.049,3.52051 53.8393,3.7002 C53.6334,3.87988 53.5305,4.12134 53.5305,4.42456 Z M54.4008,10.2756 C55.303,10.2756 56.0517,9.9874 56.6469,9.4109 L54.1931,7.03003 C53.7776,7.28459 53.4837,7.49609 53.3115,7.66455 C53.1393,7.82926 53.012,8.0071 52.9297,8.198 C52.8473,8.3889 52.8061,8.606 52.8061,8.8494 C52.8061,9.2874 52.9502,9.6355 53.2385,9.8938 C53.5305,10.1484 53.9179,10.2756 54.4008,10.2756 Z M51.8403,8.8718 C51.8403,8.3852 51.9695,7.95467 52.2278,7.58032 C52.4898,7.20597 52.9577,6.82788 53.6316,6.44604 C53.3134,6.09041 53.0962,5.82088 52.9802,5.63745 C52.8679,5.45402 52.778,5.2631 52.7107,5.0647 C52.6433,4.86629 52.6096,4.6604 52.6096,4.44702 C52.6096,3.8855 52.793,3.44751 53.1599,3.13306 C53.5267,2.8186 54.0377,2.66138 54.6928,2.66138 C55.2993,2.66138 55.7766,2.8186 56.1247,3.13306 C56.4729,3.44377 56.6469,3.87801 56.6469,4.43579 C56.6469,4.83634 56.5197,5.20695 56.2651,5.54761 C56.0105,5.88452 55.5894,6.22705 55.0017,6.5752 L57.2871,8.7708 C57.4967,8.5387 57.6633,8.2673 57.7868,7.95654 C57.9141,7.64209 58.0208,7.29956 58.1069,6.92896 L59.0503,6.92896 C58.7957,7.99959 58.412,8.8119 57.8991,9.366 L59.5781,11 L58.2922,11 L57.2534,10.0005 C56.8117,10.3973 56.3624,10.6818 55.9057,10.854 C55.449,11.0262 54.9399,11.1123 54.3784,11.1123 C53.5735,11.1123 52.9484,10.9139 52.5029,10.5171 C52.0612,10.1203 51.8403,9.5719 51.8403,8.8718 Z M63.2617,11 L62.3071,11 L62.3071,3.63843 L59.7072,3.63843 L59.7072,2.79053 L65.8615,2.79053 L65.8615,3.63843 L63.2617,3.63843 L63.2617,11 Z" id="Shape" fill="#FFFFFF" fill-rule="nonzero"></path>
            <path d="M338.767,2 C338.767,1.72386 338.991,1.5 339.267,1.5 L359.267,1.5 C359.543,1.5 359.767,1.72386 359.767,2 L359.767,10.5 C359.767,10.7761 359.543,11 359.267,11 L356.736,11 L339.267,11 C338.991,11 338.767,10.7761 338.767,10.5 L338.767,2 Z" id="Path" stroke="#FFFFFF" opacity="0.4"></path>
            <path d="M360.267,7.87398 C361.13,7.65196 361.767,6.86891 361.767,5.93699 C361.767,5.00507 361.13,4.22202 360.267,4 L360.267,7.87398 Z" id="Path" fill="#FFFFFF"></path>
            <path d="M339.267,3 C339.267,2.44772 339.715,2 340.267,2 L348.267,2 C348.82,2 349.267,2.44772 349.267,3 L349.267,9.5 C349.267,10.0523 348.82,10.5 348.267,10.5 L340.267,10.5 C339.715,10.5 339.267,10.0523 339.267,9.5 L339.267,3 Z" id="Path" fill="#FFFFFF"></path>
            <path d="M78.2558,2 C80.6217,2 82.7562,3.03944 84.2673,4.70688 L83.2629,5.76404 C82.0093,4.36553 80.2298,3.49223 78.2558,3.49223 C76.2946,3.49223 74.5252,4.35432 73.273,5.7371 L72.2673,4.68165 C73.777,3.02896 75.9019,2 78.2558,2 Z M82.2582,6.82142 C81.2625,5.69173 79.8379,4.98444 78.2558,4.98444 C76.6872,4.98444 75.2734,5.67974 74.2789,6.79267 L75.2851,7.84858 C76.0216,7.00535 77.0799,6.47666 78.2558,6.47666 C79.446,6.47666 80.5156,7.01822 81.2531,7.87931 L82.2582,6.82142 Z M80.2468,8.9385 C79.7686,8.3455 79.0541,7.96894 78.2558,7.96894 C77.4726,7.96894 76.77,8.3315 76.2921,8.9053 L78.2881,11 L80.2468,8.9385 Z" id="Shape" fill="#FFFFFF"></path>
        </g>
    </g>
</svg>