<svg width="23" height="23" viewBox="0 0 23 23" fill="none" xmlns="http://www.w3.org/2000/svg">
<path fill-rule="evenodd" clip-rule="evenodd" d="M9.30662 3.79879L10.5267 0.831955H12.5977L13.936 3.79775L15.7664 4.5717L18.8242 3.2702L20.3123 4.68363L19.0529 7.72655L19.8285 9.53825L22.8968 10.7044V12.6853L19.8206 13.966L19.0529 15.7673L20.3754 18.7295L18.9214 20.1455L15.7875 18.9273L13.9497 19.6562L12.7376 22.6548H10.6316L9.32232 19.677L7.49504 18.9247L4.44257 20.2236L2.95446 18.7841L4.22171 15.7725L3.44348 13.9738L0.360842 12.788V10.8088L3.42419 9.54033L4.21237 7.72851L2.89927 4.76988L4.34798 3.34033L7.47675 4.57875L9.30662 3.79879ZM11.6288 15.6272C13.844 15.6272 15.6398 13.8884 15.6398 11.7435C15.6398 9.59853 13.844 7.85973 11.6288 7.85973C9.41361 7.85973 7.61783 9.59853 7.61783 11.7435C7.61783 13.8884 9.41361 15.6272 11.6288 15.6272Z" fill="white"/>
</svg>
