<svg width="26" height="25" viewBox="0 0 26 25" fill="none" xmlns="http://www.w3.org/2000/svg">
<path fill-rule="evenodd" clip-rule="evenodd" d="M4.94487 0.990417L4.96819 0.990559C5.43187 0.993368 6.15585 1.06392 6.87821 1.26689C7.57922 1.46386 8.40779 1.821 8.93338 2.48607L9.37911 3.05009L8.83447 3.51931L2.32287 9.12912L1.64109 9.71649L1.18622 8.94C0.715725 8.13686 -0.0151286 6.07174 0.776174 4.00301C1.1268 3.03882 2.42078 1.13217 4.92159 0.991725L4.94487 0.990417ZM4.98244 2.49075C3.29974 2.5967 2.40797 3.8992 2.18458 4.51917L2.18192 4.52656L2.1791 4.5339C1.79522 5.53312 1.90878 6.56936 2.12669 7.31825L7.16948 2.97383C6.96904 2.87307 6.73435 2.78455 6.47246 2.71097C5.90888 2.55261 5.33342 2.49518 4.98244 2.49075ZM12.6505 22.584C17.2039 22.584 20.8947 18.8935 20.8947 14.3417C20.8947 9.7899 17.2039 6.09943 12.6505 6.09943C8.09715 6.09943 4.40639 9.7899 4.40639 14.3417C4.40639 18.8935 8.09715 22.584 12.6505 22.584ZM12.6505 24.084C15.2951 24.084 17.6936 23.0307 19.4492 21.3208L20.5852 22.8686L21.8692 24.6182C22.1143 24.9522 22.5837 25.0242 22.9176 24.7791C23.2516 24.534 23.3236 24.0647 23.0785 23.7307L21.7944 21.9811L20.5103 20.2314C20.4944 20.2097 20.4775 20.189 20.4597 20.1695C21.675 18.5443 22.3947 16.527 22.3947 14.3417C22.3947 8.9612 18.0321 4.59943 12.6505 4.59943C7.269 4.59943 2.90639 8.9612 2.90639 14.3417C2.90639 16.5106 3.61528 18.514 4.81406 20.1329L2.14121 23.6015C1.88838 23.9296 1.94941 24.4005 2.27751 24.6533C2.60561 24.9062 3.07655 24.8451 3.32937 24.517L5.81792 21.2876C7.57653 23.0171 9.98892 24.084 12.6505 24.084ZM13.4269 8.05446C13.4269 7.64024 13.0911 7.30446 12.6769 7.30446C12.2627 7.30446 11.9269 7.64024 11.9269 8.05446V13.8973H8.63252C8.21831 13.8973 7.88252 14.2331 7.88252 14.6473C7.88252 15.0615 8.21831 15.3973 8.63252 15.3973H12.6769H13.4269V14.6473V8.05446ZM20.5542 0.990559L20.5775 0.990417L20.6008 0.991724C23.1019 1.13216 24.3961 3.03873 24.7468 4.00297C25.5383 6.07175 24.8073 8.1369 24.3367 8.94005L23.8819 9.71637L23.2001 9.12916L16.6874 3.51935L16.1426 3.0501L16.5885 2.48602C17.1142 1.82097 17.9428 1.46384 18.6439 1.26688C19.3664 1.06392 20.0905 0.993368 20.5542 0.990559ZM23.3385 4.51921C23.1151 3.89929 22.2231 2.5967 20.54 2.49075C20.1889 2.49517 19.6133 2.55262 19.0496 2.71098C18.7877 2.78456 18.553 2.87308 18.3525 2.97384L23.3963 7.3184C23.6143 6.5695 23.7279 5.53321 23.3439 4.53394L23.3411 4.5266L23.3385 4.51921Z" fill="white"/>
</svg>
