<svg width="25" height="23" viewBox="0 0 25 23" fill="none" xmlns="http://www.w3.org/2000/svg">
<path fill-rule="evenodd" clip-rule="evenodd" d="M20.0779 0.279297C19.7927 -0.0210662 19.318 -0.0333359 19.0176 0.251892C18.7173 0.53712 18.705 1.01183 18.9902 1.3122L21.889 4.36478H5.7908C5.37659 4.36478 5.0408 4.70057 5.0408 5.11478C5.0408 5.52899 5.37659 5.86478 5.7908 5.86478H21.9083L18.986 8.9926C18.7033 9.29527 18.7194 9.76987 19.0221 10.0527C19.3247 10.3354 19.7993 10.3193 20.0821 10.0166L24.1835 5.6268L24.6658 5.1106L24.1793 4.59833L20.0779 0.279297ZM1.71553 5.67315C2.00435 5.67315 2.23849 5.43901 2.23849 5.15019C2.23849 4.86136 2.00435 4.62722 1.71553 4.62722C1.4267 4.62722 1.19256 4.86136 1.19256 5.15019C1.19256 5.43901 1.4267 5.67315 1.71553 5.67315ZM4.32026 5.15019C4.32026 5.43901 4.08612 5.67315 3.7973 5.67315C3.50847 5.67315 3.27433 5.43901 3.27433 5.15019C3.27433 4.86136 3.50847 4.62722 3.7973 4.62722C4.08612 4.62722 4.32026 4.86136 4.32026 5.15019ZM5.27142 12.8895C5.55668 12.5892 6.03139 12.577 6.33173 12.8622C6.63207 13.1475 6.6443 13.6222 6.35905 13.9225L3.45984 16.9751H19.5608C19.975 16.9751 20.3108 17.3109 20.3108 17.7251C20.3108 18.1393 19.975 18.4751 19.5608 18.4751H3.44047L6.36322 21.6028C6.64603 21.9055 6.62995 22.3801 6.3273 22.6629C6.02466 22.9457 5.55006 22.9296 5.26725 22.627L1.16516 18.2371L0.682755 17.7209L1.16934 17.2086L5.27142 12.8895ZM23.6368 18.2834C23.3479 18.2834 23.1137 18.0493 23.1137 17.7605C23.1137 17.4717 23.3479 17.2375 23.6368 17.2375C23.9257 17.2375 24.1599 17.4717 24.1599 17.7605C24.1599 18.0493 23.9257 18.2834 23.6368 18.2834ZM21.0316 17.7605C21.0316 18.0493 21.2658 18.2834 21.5547 18.2834C21.8435 18.2834 22.0777 18.0493 22.0777 17.7605C22.0777 17.4717 21.8435 17.2375 21.5547 17.2375C21.2658 17.2375 21.0316 17.4717 21.0316 17.7605Z" fill="white"/>
</svg>
